<svg width="240" height="77" viewBox="0 0 240 77" fill="none" xmlns="http://www.w3.org/2000/svg">
<g clip-path="url(#clip0_126_729)">
<path d="M37.4784 16.3563C37.4784 16.3563 29.3955 11.659 23.5622 21.829C21.7772 24.941 20.6211 27.849 19.9059 30.5522C18.4334 31.0525 9.0944 34.4121 11.8807 44.8724L20.0404 42.6716C24.1949 56.0967 41.0397 61.818 41.0397 61.818C41.0397 61.818 37.5397 67.92 45.6226 72.6173L48.2686 63.307L54.956 56.3453C46.8731 51.648 43.3731 57.75 43.3731 57.75C43.3731 57.75 32.7254 49.2569 37.7584 35.503L43.4568 38.8147C45.7902 34.7467 42.926 31.238 40.7663 29.4134L43.228 25.1217C47.8946 16.9857 47.0406 13.7773 45.0199 12.603C42.9991 11.4287 38.6451 14.3223 37.4784 16.3563ZM37.1658 21.5987C36.5241 22.7174 35.0898 23.1042 33.9784 22.4583C32.867 21.8124 32.4827 20.3687 33.1244 19.25C33.766 18.1313 35.2003 17.7444 36.3117 18.3903C37.4231 19.0362 37.8075 20.48 37.1658 21.5987Z" fill="url(#paint0_linear_126_729)"/>
</g>
<path d="M68.5284 53.3424V24.2515H74.679V48.2714H87.1506V53.3424H68.5284ZM104.302 44.0526V31.5242H110.353V53.3424H104.543V49.3793H104.316C103.823 50.6577 103.004 51.6852 101.858 52.4617C100.722 53.2382 99.3347 53.6265 97.6965 53.6265C96.2381 53.6265 94.955 53.295 93.847 52.6321C92.7391 51.9693 91.8726 51.027 91.2476 49.8054C90.6321 48.5839 90.3196 47.1208 90.3101 45.4162V31.5242H96.3612V44.3367C96.3707 45.6246 96.7163 46.6426 97.3982 47.3907C98.08 48.1388 98.9938 48.5128 100.14 48.5128C100.869 48.5128 101.551 48.3471 102.185 48.0157C102.82 47.6748 103.331 47.1729 103.719 46.51C104.117 45.8471 104.311 45.028 104.302 44.0526ZM114.393 53.3424V31.5242H120.16V35.3736H120.416C120.87 34.0952 121.628 33.0867 122.688 32.3481C123.749 31.6094 125.018 31.2401 126.495 31.2401C127.991 31.2401 129.265 31.6142 130.316 32.3623C131.367 33.1009 132.068 34.1047 132.418 35.3736H132.646C133.091 34.1236 133.896 33.1246 135.061 32.3765C136.235 31.6189 137.622 31.2401 139.222 31.2401C141.258 31.2401 142.911 31.8888 144.18 33.1861C145.458 34.474 146.097 36.3017 146.097 38.6691V53.3424H140.061V39.8623C140.061 38.6501 139.739 37.7411 139.095 37.135C138.451 36.5289 137.646 36.2259 136.68 36.2259C135.581 36.2259 134.724 36.5763 134.109 37.277C133.493 37.9683 133.186 38.8821 133.186 40.0185V53.3424H127.319V39.7344C127.319 38.6643 127.011 37.8121 126.396 37.1776C125.79 36.5431 124.989 36.2259 123.995 36.2259C123.323 36.2259 122.717 36.3964 122.177 36.7373C121.647 37.0687 121.225 37.5375 120.913 38.1435C120.6 38.7401 120.444 39.4409 120.444 40.2458V53.3424H114.393ZM150.191 53.3424V24.2515H156.242V35.189H156.427C156.692 34.6018 157.075 34.0053 157.577 33.3992C158.089 32.7837 158.752 32.2723 159.566 31.8651C160.39 31.4484 161.412 31.2401 162.634 31.2401C164.225 31.2401 165.693 31.6568 167.037 32.4901C168.382 33.314 169.457 34.5592 170.262 36.2259C171.067 37.8831 171.469 39.9617 171.469 42.4617C171.469 44.8954 171.076 46.9503 170.29 48.6265C169.514 50.2931 168.453 51.5573 167.109 52.4191C165.773 53.2714 164.277 53.6975 162.62 53.6975C161.446 53.6975 160.447 53.5034 159.623 53.1151C158.808 52.7268 158.141 52.2392 157.62 51.652C157.099 51.0554 156.701 50.4541 156.427 49.8481H156.157V53.3424H150.191ZM156.114 42.4333C156.114 43.7306 156.294 44.8623 156.654 45.8282C157.014 46.7941 157.535 47.5469 158.216 48.0867C158.898 48.617 159.727 48.8821 160.702 48.8821C161.687 48.8821 162.52 48.6123 163.202 48.0725C163.884 47.5232 164.4 46.7657 164.751 45.7998C165.11 44.8244 165.29 43.7022 165.29 42.4333C165.29 41.1738 165.115 40.0659 164.765 39.1094C164.414 38.153 163.898 37.4049 163.216 36.8651C162.535 36.3253 161.697 36.0554 160.702 36.0554C159.717 36.0554 158.884 36.3159 158.202 36.8367C157.53 37.3575 157.014 38.0962 156.654 39.0526C156.294 40.009 156.114 41.1359 156.114 42.4333ZM180.929 53.7543C179.537 53.7543 178.296 53.5128 177.207 53.0299C176.118 52.5375 175.256 51.813 174.622 50.8566C173.997 49.8907 173.684 48.688 173.684 47.2486C173.684 46.0365 173.907 45.0185 174.352 44.1946C174.797 43.3708 175.403 42.7079 176.17 42.206C176.937 41.7041 177.808 41.3253 178.784 41.0696C179.769 40.814 180.801 40.634 181.88 40.5299C183.149 40.3973 184.172 40.2742 184.948 40.1606C185.725 40.0375 186.288 39.8575 186.639 39.6208C186.989 39.384 187.164 39.0337 187.164 38.5696V38.4844C187.164 37.5848 186.88 36.8888 186.312 36.3964C185.753 35.9039 184.958 35.6577 183.926 35.6577C182.837 35.6577 181.97 35.8992 181.326 36.3821C180.682 36.8556 180.256 37.4522 180.048 38.1719L174.451 37.7174C174.735 36.3916 175.294 35.2458 176.127 34.2799C176.961 33.3045 178.036 32.5564 179.352 32.0356C180.678 31.5053 182.212 31.2401 183.954 31.2401C185.166 31.2401 186.326 31.3821 187.434 31.6662C188.552 31.9503 189.541 32.3907 190.403 32.9873C191.274 33.5839 191.961 34.3509 192.463 35.2884C192.965 36.2164 193.215 37.3291 193.215 38.6265V53.3424H187.477V50.3168H187.306C186.956 50.9986 186.487 51.6 185.9 52.1208C185.313 52.6321 184.608 53.0346 183.784 53.3282C182.96 53.6123 182.008 53.7543 180.929 53.7543ZM182.662 49.5782C183.552 49.5782 184.338 49.403 185.019 49.0526C185.701 48.6928 186.236 48.2098 186.625 47.6037C187.013 46.9977 187.207 46.3111 187.207 45.5441V43.2287C187.018 43.3518 186.757 43.4655 186.426 43.5696C186.104 43.6643 185.739 43.7543 185.332 43.8395C184.925 43.9153 184.518 43.9863 184.11 44.0526C183.703 44.1094 183.334 44.1615 183.002 44.2089C182.292 44.313 181.672 44.4787 181.142 44.706C180.611 44.9333 180.199 45.2411 179.906 45.6293C179.612 46.0081 179.465 46.4816 179.465 47.0498C179.465 47.8736 179.764 48.5034 180.36 48.939C180.966 49.3651 181.733 49.5782 182.662 49.5782ZM200.647 53.7117C199.71 53.7117 198.905 53.3803 198.232 52.7174C197.569 52.045 197.238 51.2401 197.238 50.3026C197.238 49.3746 197.569 48.5791 198.232 47.9162C198.905 47.2534 199.71 46.9219 200.647 46.9219C201.556 46.9219 202.352 47.2534 203.033 47.9162C203.715 48.5791 204.056 49.3746 204.056 50.3026C204.056 50.9276 203.895 51.5005 203.573 52.0214C203.261 52.5327 202.849 52.9446 202.337 53.2571C201.826 53.5602 201.263 53.7117 200.647 53.7117ZM214.446 53.7543C213.054 53.7543 211.813 53.5128 210.724 53.0299C209.635 52.5375 208.773 51.813 208.139 50.8566C207.514 49.8907 207.201 48.688 207.201 47.2486C207.201 46.0365 207.424 45.0185 207.869 44.1946C208.314 43.3708 208.92 42.7079 209.687 42.206C210.454 41.7041 211.325 41.3253 212.301 41.0696C213.286 40.814 214.318 40.634 215.397 40.5299C216.666 40.3973 217.689 40.2742 218.466 40.1606C219.242 40.0375 219.806 39.8575 220.156 39.6208C220.506 39.384 220.682 39.0337 220.682 38.5696V38.4844C220.682 37.5848 220.397 36.8888 219.829 36.3964C219.271 35.9039 218.475 35.6577 217.443 35.6577C216.354 35.6577 215.487 35.8992 214.843 36.3821C214.2 36.8556 213.773 37.4522 213.565 38.1719L207.968 37.7174C208.253 36.3916 208.811 35.2458 209.645 34.2799C210.478 33.3045 211.553 32.5564 212.869 32.0356C214.195 31.5053 215.729 31.2401 217.471 31.2401C218.683 31.2401 219.843 31.3821 220.951 31.6662C222.069 31.9503 223.058 32.3907 223.92 32.9873C224.791 33.5839 225.478 34.3509 225.98 35.2884C226.482 36.2164 226.733 37.3291 226.733 38.6265V53.3424H220.994V50.3168H220.824C220.473 50.9986 220.004 51.6 219.417 52.1208C218.83 52.6321 218.125 53.0346 217.301 53.3282C216.477 53.6123 215.525 53.7543 214.446 53.7543ZM216.179 49.5782C217.069 49.5782 217.855 49.403 218.537 49.0526C219.218 48.6928 219.754 48.2098 220.142 47.6037C220.53 46.9977 220.724 46.3111 220.724 45.5441V43.2287C220.535 43.3518 220.274 43.4655 219.943 43.5696C219.621 43.6643 219.256 43.7543 218.849 43.8395C218.442 43.9153 218.035 43.9863 217.628 44.0526C217.22 44.1094 216.851 44.1615 216.52 44.2089C215.809 44.313 215.189 44.4787 214.659 44.706C214.129 44.9333 213.717 45.2411 213.423 45.6293C213.129 46.0081 212.983 46.4816 212.983 47.0498C212.983 47.8736 213.281 48.5034 213.878 48.939C214.484 49.3651 215.251 49.5782 216.179 49.5782ZM230.627 53.3424V31.5242H236.678V53.3424H230.627ZM233.667 28.7117C232.767 28.7117 231.996 28.4134 231.352 27.8168C230.717 27.2107 230.4 26.4863 230.4 25.6435C230.4 24.8102 230.717 24.0952 231.352 23.4986C231.996 22.8926 232.767 22.5895 233.667 22.5895C234.567 22.5895 235.334 22.8926 235.968 23.4986C236.612 24.0952 236.934 24.8102 236.934 25.6435C236.934 26.4863 236.612 27.2107 235.968 27.8168C235.334 28.4134 234.567 28.7117 233.667 28.7117Z" fill="url(#paint1_linear_126_729)"/>
<defs>
<linearGradient id="paint0_linear_126_729" x1="25.4126" y1="60.8724" x2="51.3322" y2="16.2713" gradientUnits="userSpaceOnUse">
<stop stop-color="#16D9E3"/>
<stop offset="0.47" stop-color="#30C7EC"/>
<stop offset="1" stop-color="#46AEF7"/>
</linearGradient>
<linearGradient id="paint1_linear_126_729" x1="66" y1="38.3424" x2="240" y2="38.3424" gradientUnits="userSpaceOnUse">
<stop stop-color="#16D9E3"/>
<stop offset="0.47" stop-color="#30C7EC"/>
<stop offset="1" stop-color="#46AEF7"/>
</linearGradient>
<clipPath id="clip0_126_729">
<rect width="56.2762" height="56.0922" fill="white" transform="matrix(0.497546 -0.867437 0.864602 0.502458 0 48.816)"/>
</clipPath>
</defs>
</svg>
